<svg xmlns="http://www.w3.org/2000/svg" viewBox="0 0 156.62 180.85"><defs><style>.cls-1{fill:#fff;}.cls-2{fill:none;stroke:#fff;stroke-miterlimit:10;}</style></defs><title>one logo new</title><g id="Layer_2" data-name="Layer 2"><g id="Layer_1-2" data-name="Layer 1"><path class="cls-1" d="M78.31,45.85A44.58,44.58,0,1,1,33.73,90.43,44.58,44.58,0,0,1,78.31,45.85ZM114,111V69.8L78.31,49.19,42.6,69.8V111l35.71,20.62Z"/><path class="cls-1" d="M78.31,82.3a8.12,8.12,0,1,1-8.12,8.13A8.12,8.12,0,0,1,78.31,82.3Z"/><path class="cls-1" d="M78.31,22.35A68.07,68.07,0,1,1,10.24,90.43,68.08,68.08,0,0,1,78.31,22.35Zm63.05,68.08-4.46-7.72,2.31-8.6-6.3-6.3v-8.9l-7.71-4.46-2.31-8.6-8.6-2.31-4.46-7.71h-8.9l-6.3-6.3L86,31.84l-7.71-4.46L70.6,31.84,62,29.53l-6.3,6.3h-8.9l-4.45,7.7-8.61,2.31-2.3,8.61-7.72,4.46v8.9l-6.29,6.3,2.3,8.6-4.45,7.72,4.45,7.71-2.3,8.6,6.29,6.3V122l7.72,4.46,2.3,8.59,8.6,2.31L46.79,145h8.9l6.3,6.3L70.6,149l7.71,4.46L86,149l8.61,2.31,6.3-6.3h8.9l4.46-7.71,8.6-2.31,2.31-8.59,7.71-4.46V113l6.3-6.29-2.31-8.61Z"/><polygon class="cls-2" points="0.5 45.5 0.5 135.35 78.31 180.27 156.12 135.35 156.12 45.5 78.31 0.58 0.5 45.5"/><path class="cls-2" d="M146.38,90.43a68.07,68.07,0,1,0-68.07,68.06A68.08,68.08,0,0,0,146.38,90.43Z"/><polygon class="cls-2" points="42.33 137.31 46.79 145.03 55.69 145.03 63.68 145.03 71.13 145.03 85.5 145.03 92.94 145.03 100.93 145.03 109.83 145.03 114.29 137.31 118.28 130.4 121.99 123.96 129.19 111.51 132.91 105.06 136.9 98.14 141.35 90.43 136.9 82.72 132.91 75.8 129.19 69.35 121.99 56.9 118.28 50.46 114.29 43.54 109.83 35.83 100.93 35.83 92.94 35.83 85.5 35.83 71.12 35.83 63.68 35.83 55.69 35.83 46.79 35.83 42.34 43.53 38.34 50.46 34.63 56.9 27.44 69.35 23.71 75.8 19.72 82.72 15.27 90.43 19.72 98.14 23.71 105.06 27.44 111.51 34.62 123.94 38.34 130.4 42.33 137.31"/><polygon class="cls-2" points="19.72 98.14 17.41 106.74 23.71 113.04 29.36 118.69 34.62 123.94 44.79 134.12 50.05 139.38 55.69 145.03 61.99 151.32 70.6 149.01 78.31 146.95 85.5 145.03 99.39 141.3 106.58 139.38 114.29 137.31 122.89 135 125.2 126.41 127.26 118.69 129.19 111.51 132.91 97.61 134.84 90.43 136.9 82.72 139.21 74.11 132.91 67.81 127.26 62.16 121.99 56.9 111.84 46.74 106.58 41.48 100.93 35.83 94.63 29.53 86.02 31.84 78.3 33.9 71.12 35.83 57.25 39.54 50.05 41.47 42.34 43.53 33.73 45.84 31.43 54.45 29.36 62.16 27.44 69.35 23.71 83.23 21.79 90.43 19.72 98.14"/><polyline class="cls-2" points="78.31 146.95 86.02 149.01 94.63 151.32 100.93 145.03"/>
<polyline class="cls-2" points="29.36 118.69 31.43 126.41 33.73 135 42.33 137.31"/><polyline class="cls-2" points="29.36 62.16 23.71 67.81 17.41 74.11 19.72 82.72"/><polyline class="cls-2" points="78.3 33.9 70.6 31.84 61.99 29.53 55.69 35.83"/><polyline class="cls-2" points="127.26 62.16 125.2 54.45 122.89 45.85 114.29 43.54"/><polyline class="cls-2" points="127.26 118.69 132.91 113.04 139.21 106.75 136.9 98.14"/><polygon class="cls-2" points="125.2 126.41 132.91 121.95 132.91 113.04 132.91 105.06 132.91 97.61 132.91 83.24 132.91 75.8 132.91 67.81 132.91 58.91 125.2 54.45 118.28 50.46 111.84 46.74 99.39 39.55 92.94 35.83 86.02 31.84 78.31 27.38 70.6 31.84 63.68 35.83 57.25 39.54 44.78 46.74 38.34 50.46 31.43 54.45 23.71 58.91 23.71 67.81 23.71 75.8 23.71 83.23 23.71 97.61 23.71 105.06 23.71 113.04 23.71 121.95 31.43 126.41 38.34 130.4 44.79 134.12 57.23 141.3 63.68 145.03 70.6 149.01 78.31 153.47 86.02 149.01 92.94 145.03 99.39 141.3 111.84 134.11 118.28 130.4 125.2 126.41"/><path class="cls-2" d="M78.31,45.85a44.58,44.58,0,1,0,44.58,44.58A44.58,44.58,0,0,0,78.31,45.85Z"/><polygon class="cls-2" points="114.01 111.04 114.01 69.81 78.31 49.19 42.6 69.81 42.6 111.04 78.31 131.66 114.01 111.04"/><path class="cls-2" d="M58.26,81.86a39,39,0,0,0,0,16.88,33,33,0,0,0,3.16,8.64,25.38,25.38,0,0,0,6.33,7.83,16.26,16.26,0,0,0,21,.2,25,25,0,0,0,6.59-8,33.19,33.19,0,0,0,3.19-8.85,38,38,0,0,0,.86-8.09,37.6,37.6,0,0,0-.91-8.34,33.23,33.23,0,0,0-3.14-8.61,24.91,24.91,0,0,0-6.83-8.23A16.22,16.22,0,0,0,68,65.43a24.91,24.91,0,0,0-6.6,8A33.51,33.51,0,0,0,58.26,81.86Z"/><path class="cls-2" d="M53.32,80.07a25,25,0,0,0,1,10.27,33.41,33.41,0,0,0,3.89,8.4A39.38,39.38,0,0,0,70,110.52,33.56,33.56,0,0,0,78,114.31a25.26,25.26,0,0,0,10.62,1.1,16.24,16.24,0,0,0,14.64-14.63,25.14,25.14,0,0,0-1-10.43,33.5,33.5,0,0,0-3.86-8.26A38.88,38.88,0,0,0,86.64,70.34a33.4,33.4,0,0,0-8.6-4A25.18,25.18,0,0,0,68,65.43,16.24,16.24,0,0,0,53.32,80.06"/><path class="cls-2" d="M86.64,70.34a39.1,39.1,0,0,0-17,.08,33.41,33.41,0,0,0-8.23,3,25.16,25.16,0,0,0-8,6.59h0a16.25,16.25,0,0,0,0,20.77,25.09,25.09,0,0,0,8,6.54A33.81,33.81,0,0,0,70,110.52a38.88,38.88,0,0,0,16.26.08,33.48,33.48,0,0,0,9-3.23,25,25,0,0,0,8-6.59,16.25,16.25,0,0,0,0-20.67,25.1,25.1,0,0,0-8.07-6.63A33.6,33.6,0,0,0,86.64,70.34Z"/><path class="cls-2" d="M69.6,70.42a38,38,0,0,0-6.13,5,38.5,38.5,0,0,0-5.21,6.44,33.91,33.91,0,0,0-3.94,8.48,24.87,24.87,0,0,0-1,10.5A16.15,16.15,0,0,0,67.7,115.21a24.89,24.89,0,0,0,10.34-.9,33.64,33.64,0,0,0,8.21-3.71A39.2,39.2,0,0,0,98.44,98.52a33.64,33.64,0,0,0,3.81-8.17,25.11,25.11,0,0,0,1.07-10.24,16.27,16.27,0,0,0-14.9-14.86A25.3,25.3,0,0,0,78,66.37,33.63,33.63,0,0,0,69.6,70.42Z"/></g></g></svg>
